<svg xmlns="http://www.w3.org/2000/svg" viewBox="0 0 612 612">
  <path fill='white' d="M573 139c-25.4-48.9-60.8-85.8-102.3-106.7-8-4-17.7-1.4-22.4 6.2l-32.6 51.1a17.3 17.3 0 0 0 7.8 25.3c54.2 23.4 93.6 103.8 93.6 191.3 0 86.5-38.8 166.7-92.3 190.8a17.4 17.4 0 0 0-7.7 25l31.8 51.4a17.3 17.3 0 0 0 22.7 6.3c41.3-21.1 76.4-58 101.7-106.8A364 364 0 0 0 612 306.2 364 364 0 0 0 573 139zM469.6 540.8l-13.4-21.6c57.1-36.8 95.6-120.9 95.6-213 0-93-39-177.4-96.7-213.8L468.7 71c65.5 41.5 108.6 133.6 108.6 235.2 0 101-42.7 192.8-107.7 234.6z"/>
  <path fill='white' d="M489.3 306.7c0-70.1-29.6-134.7-79.2-172.6a17.4 17.4 0 0 0-25.1 4.5l-31.9 50a17.4 17.4 0 0 0 3.1 22.3c23.6 21 38.2 57.7 38.2 95.8 0 37.4-13.6 72.6-36.3 94.1-6 5.7-7.1 14.8-2.8 21.7l31.4 50.8a17.4 17.4 0 0 0 25.5 4.4c48.3-38.1 77.1-102 77.1-171zm-84 130.6-13.5-21.7c23.6-28 37.3-67.6 37.3-108.9 0-42.7-14.5-83-39.3-111.1l13.6-21.4c32.4 32.3 51.2 80.4 51.2 132.5 0 51-18.1 98.4-49.3 130.6zM303.4 101.6c-6-3-13-2.2-18.3 2L151.4 208.9H80.7C36.1 209 0 252.5 0 306s36.2 97 80.6 97h70.8l133.7 105.4a17.3 17.3 0 0 0 28-13.6V117.2c0-6.7-3.7-12.7-9.7-15.6zm-203 266.8H80.5c-25.3 0-45.9-28-45.9-62.4s20.6-62.4 46-62.4h19.6v124.8zm178 90.7-110.2-87c-3-2.4-6.9-3.7-10.8-3.7H135V243.6h22.4c4 0 7.7-1.3 10.8-3.7l110.3-87v306.2z"/>
</svg>