<svg xmlns="http://www.w3.org/2000/svg" xml:space="preserve" viewBox="0 0 612 612">
  <path fill='white' d="M342.8 75a19.6 19.6 0 0 0-20.7 2.3l-151 119H91C41 196.3 0 245.5 0 306s40.9 109.7 91.1 109.7h80l151 119a19.6 19.6 0 0 0 31.8-15.4V92.7c0-7.5-4.3-14.4-11-17.7zM113.4 376.5H91c-28.6 0-51.9-31.6-51.9-70.5s23.3-70.5 52-70.5h22.2v141zm201.3 102.4L190 380.7a19.6 19.6 0 0 0-12.1-4.2h-25.3v-141h25.3c4.4 0 8.7-1.5 12.1-4.2l124.7-98.2v345.8zM530.8 306l75.5-75.5a19.6 19.6 0 1 0-27.8-27.7L503 278.3l-75.4-75.5a19.6 19.6 0 1 0-27.8 27.7l75.5 75.5-75.5 75.5a19.6 19.6 0 0 0 27.8 27.7l75.4-75.5 75.5 75.5a19.5 19.5 0 0 0 27.8 0c7.6-7.6 7.6-20 0-27.7L530.8 306z"/>
</svg>